<svg xmlns="http://www.w3.org/2000/svg"><symbol id="brachiosaurus" viewBox="0 0 256 256"><path d="M60 166a31 31 0 0 0-7.6.9h-.1c0 .3.3.6.8 1a12.3 12.3 0 0 0 2 1l2.6 1 2.8.8 2.4.6 1.4.2h2.2a11.8 11.8 0 0 0 2.5-.4l2.3-.8a5 5 0 0 0 1.7-1.5 31.5 31.5 0 0 0-6.3-2.2 38.1 38.1 0 0 0-6.7-.6z"/><path d="M128.3 1.3a126 126 0 1 0 126 126 126 126 0 0 0-126-126zm82.2 69.6v.3a7.8 7.8 0 0 1-.1 1.3l-.3 2.1c-.2.8-.2 1.5-.4 2.1s-.2 1.1-.2 1.3a7.6 7.6 0 0 0-.9 1.8l-.6 2-.6 2-.7 1.9c-.6 1.1-1.1 2.1-1.7 3a30.1 30.1 0 0 0-1.6 3.1l-19.8 27.4a.8.8 0 0 1-.2.6l-.2.3-.4.2-.4.5-1.6 2.3-2.1 2.8-2.1 3.2c-.7 1.1-1.4 2.2-2 3.3a25.3 25.3 0 0 0-1.4 2.9 8 8 0 0 0-.5 2.3c0 .3-.2.5-.2.7s.2.5.2.7c-.2.1-.3.2-.3.4s.1.4.3.4v10.1a4.4 4.4 0 0 1-.2 1c-.2.4-.2.7-.4 1.1s-.5.8-.6 1.2-.4.8-.4 1.2v1.6c0 .1.1.2-.1.4a3 3 0 0 1-.4.8c-.1.3-.5.6-.7.8s-.5.4-.5.4v.4c0 .1.7.2.8.4s.9.4.9.4v.6a2.1 2.1 0 0 0 0 .8v1.4c0 1.2-.5 2.4-.6 3.5s-.6 2.3-.8 3.5-.5 2.3-.7 3.5a19.8 19.8 0 0 0-.3 3.5c0 2.1.1 4.1.3 6.2a41 41 0 0 0 1.1 6.1 27.8 27.8 0 0 0 2.1 5.7 24.5 24.5 0 0 0 3.4 5.2 7.4 7.4 0 0 1-1.3.8l-1.6.7-1.8.4a3.4 3.4 0 0 1-1.4.1h-.4l-1.1-.2-1.1-.3-1-.2h-.8l-.7-.3-.6-.5a.9.9 0 0 1-.3-.7c.1-1.3.1-2.7.1-4l-.3-4.3c-.1-1.4-.3-2.8-.5-4.2s-.4-2.7-.5-4a6.4 6.4 0 0 1-.2-.7 1.6 1.6 0 0 0-.3-.6c.1-1.1.1-2.3.2-3.6s-.1-2.6-.2-4a26.3 26.3 0 0 0-.6-3.9 9.4 9.4 0 0 0-1.4-3.4 3.7 3.7 0 0 0-1.4 1.8 17.3 17.3 0 0 0-.8 2.7c-.2.9-.2 1.9-.4 2.8a15.3 15.3 0 0 0-.9 2.4v7.5c0 2.8-.2 5.5-.1 8.2s.2 5.4.5 8.1l.4.3.8.6.8.7c.3.3.4.5.4.6s-.3.5-.8.8l-1.9.9-2 .8-1.2.4h-.2l-4.7-2.5a.4.4 0 0 1-.2-.5v-.6a15 15 0 0 1 0-3 28.1 28.1 0 0 0 .1-3 23.1 23.1 0 0 0-.3-3.7l-.6-3.7-.6-3.7a25.5 25.5 0 0 1-.2-3.9c0-1.2 0-2.3.1-3.3l.3-2.8a25.6 25.6 0 0 0 .5-2.7c.2-1 .5-2 .7-3.2v-.7l-.2-.7a5.5 5.5 0 0 0-1.8.2l-1.9.5-1.9.6-1.9.5-1.3.2H138c-.3.1-.6-.1-.9-.1h-2.9a44.7 44.7 0 0 1-5.2-.1h-7.6a4.3 4.3 0 0 0-2.4.8 45.1 45.1 0 0 1 0 5.2c0 1.7-.1 3.3-.1 5l-.3 5.1c0 1.7-.1 3.4-.1 5.1v5.1c0 .5.6 1.1 1.1 1.6a11.5 11.5 0 0 0 1.4 1.7l1.2 1.8a3.7 3.7 0 0 1 .5 1.8v.2h-.1a7.6 7.6 0 0 1-4 .4c.1.5 0 .7-.2.8h-2.7l-2.2-.2a3.8 3.8 0 0 1-1.8-.9 2.2 2.2 0 0 1-.8-1.8c0-.4.1-.8.1-1.3a9.3 9.3 0 0 1 .4-1.3l.3-1.3a5.7 5.7 0 0 0 .1-1.3 22.5 22.5 0 0 0-.3-3.8c-.1-1.3-.4-2.4-.6-3.6s-.6-2.6-.8-3.8a29.5 29.5 0 0 1-.8-3.9h-.4c-.2 0-.4.7-.5.9l-.4.7-.3.5-1.5 2.2c-.6.8-1 1.5-1.5 2.3a25.6 25.6 0 0 0-1.1 2.4 11 11 0 0 0-.4 2.7 4.5 4.5 0 0 0 .3 1.6l.8 1.5.7 1.1a1.5 1.5 0 0 1 .3.6.8.8 0 0 1-.4.7l-1 .5-1.3.3h-4.3a2.1 2.1 0 0 1-1.1-.4l-.7-.8-.5-1.6c-.2-.6-.3-1.1-.5-1.6a5.1 5.1 0 0 1-.3-1.7 5.6 5.6 0 0 1 .4-1.5l1-1.5c.3-.6.7-1.1 1-1.6a7 7 0 0 0 .8-1.4c.9-2 1.7-3.9 2.5-5.9l2.4-5.8a3.5 3.5 0 0 1 .5-.8l.5-.7a2.5 2.5 0 0 0 .4-.7 2.4 2.4 0 0 0 .2-.8c0-.4-.1-.6-.3-.7h-1.3l-8.9 2.5a3.2 3.2 0 0 1-1.3.5l-1.8.4a3.4 3.4 0 0 0-1.5.6 1 1 0 0 0-.7 1 2 2 0 0 0 .2.9c.2.2.4.5.7.6l.8.6.8.6-.4.4-1.3-.8-1.4-.8a4.7 4.7 0 0 0-1.5-.6 4 4 0 0 0-1.5-.3 17.3 17.3 0 0 0-3.8.5l-3.9 1.2-4 1.1a20.1 20.1 0 0 1-4.2.5 18.5 18.5 0 0 1-3.5-.4 39.7 39.7 0 0 1-4.8-1.1l-5.4-1.7a44.8 44.8 0 0 1-4.9-2.3 18.5 18.5 0 0 1-3.7-2.6 4.6 4.6 0 0 1-1.4-3 4.4 4.4 0 0 1 1.1-3.2 6.3 6.3 0 0 1 2.7-1.6c1.1-.4 2.3-.1 3.5-.2s2.3.3 3.3.3h4a2.2 2.2 0 0 1 1.2-.2H64l2.6.4 1.9.2 1.9.5 1.8.9 1.8.7a4.8 4.8 0 0 0 2 .4 8.9 8.9 0 0 0 4-1.1 37.7 37.7 0 0 0 4.1-2.5c1.3-1 2.6-2 3.8-3.1s2.3-2 3.3-2.7a9.4 9.4 0 0 1 1.8-1.2l1.8-1.1a10.9 10.9 0 0 0 1.7-1.3 5 5 0 0 0 1.5-1.7 39.1 39.1 0 0 0 2.6-4.4 39.9 39.9 0 0 1 2.7-4.4 5.3 5.3 0 0 1 1.3-1.3l1.5-1 1.6-.9a8.3 8.3 0 0 0 1.6-.9 33.2 33.2 0 0 0 3.6-2.6c1.2-.9 2.3-1.9 3.4-2.9l3.4-3 3.4-2.8a20 20 0 0 1 3.7-2.2l3.9-1.8 2.5-1.3 2.4-1.3 2.6-1.1a11.2 11.2 0 0 1 2.6-.8l22.2-3.2a11 11 0 0 0 3.5-1.1 14.6 14.6 0 0 0 3.3-2.2 21.5 21.5 0 0 0 3.2-2.9c1-1 2-2.1 2.9-3.2s1.8-2.1 2.6-3.2l2.3-2.7 7.7-8.9q0-.2.3-.3l.5-.5.5-.6.3-.2 2-3.3h.3l.4-.3.3-.2.3-.2.4-.4.3-.4 1.3-1.7 1.3-1.9 1.3-2 1-1.7a11.9 11.9 0 0 0 .8-2 17.2 17.2 0 0 0 .7-2.1c.2-.7.5-1.4.8-2.2s1-1.4 1-2.1v-6.2a5.3 5.3 0 0 0-1.1-3.1 12.4 12.4 0 0 0-2.6-2.5 11.9 11.9 0 0 0-3.3-1.8 8.4 8.4 0 0 0-3.2-.7 22.5 22.5 0 0 0-5.8.7 12.4 12.4 0 0 0-5.1 2.6l-1.4 1.4-1.6 1.8c-.6.7-1.1 1.4-1.7 2a17 17 0 0 1-1.9 1.9l-1.8 1.3a3.7 3.7 0 0 1-1.7.5 1.7 1.7 0 0 1-1.2-.5 1.6 1.6 0 0 1-.5-1.1v-.5a1 1 0 0 0 .1-.4c.1-.3.1-.5.2-.8s.1-.5.1-.8a.8.8 0 0 0 .1-.4 8.8 8.8 0 0 0-.2-1.7l-.6-1.3a6.7 6.7 0 0 1-.6-1.2 2.7 2.7 0 0 1-.3-1.2 1.2 1.2 0 0 0 .9-.3l.4-.6c.1-.3.3-.5.4-.8l.8-.6h2.8a1.1 1.1 0 0 0 1-.4l.7-.6a.1.1 0 0 1 .2 0h.2c0 .1.1.2.2.4l.2.4c0-.2.2-.3.4-.4l.6-.3 1.1-.7 1.4-.8 1.3-.8 1.1-.6.5-.4a13.5 13.5 0 0 1 2.1-1.3 6.4 6.4 0 0 1 1.8-.6l1.9-.2h6.4a3.5 3.5 0 0 0 1.4.6l1.6.3 1.5.3 1.5.5a11.9 11.9 0 0 1 4.5 3 14.6 14.6 0 0 1 3.2 4.2 20.3 20.3 0 0 1 1.7 4.9 25 25 0 0 1 .5 5.5v2.3z"/></symbol><symbol id="micropachycephalosaurus" viewBox="0 0 256 256"><path d="M132.7 150.3c-.3 0-.5.2-.5.6-.3 0-.5.1-.5.5a.5.5 0 0 0 .5.5.5.5 0 0 0 .4-.5h.1a.5.5 0 0 0 .5-.5c0-.4-.2-.6-.5-.6zm1.4-.8a1.5 1.5 0 0 0-.8.8h.2a1.5 1.5 0 0 0 1.1-.4 2.2 2.2 0 0 0 .9-.7h-.3a2.3 2.3 0 0 0-1.1.3zm3-2.6c-.2 0-.4.2-.4.6h-.1c-.3 0-.4.2-.4.5h-.2c-.3 0-.4.2-.4.6s.1.6.4.6.5-.2.5-.6h.1c.3 0 .4-.2.4-.6h.1c.4 0 .5-.1.5-.5s-.1-.6-.5-.6zm23.1-5.8l-1.3 1.4a1.7 1.7 0 0 0 .8 1l1.1.2a1.9 1.9 0 0 0 1.4-.5 4.3 4.3 0 0 0 1.1-1.2 9.1 9.1 0 0 0 .7-1.4c.2-.6.4-1.2.5-1.2h-3.4c-.2 0-.5 1.1-.9 1.7z"/><path d="M128.2 1.3a126 126 0 1 0 126 126 126 126 0 0 0-126-126zm94.4 74.8l-1.5.4h-3.7a37.5 37.5 0 0 0-5.1 1.3 12.2 12.2 0 0 0-3.6 1.5 7.6 7.6 0 0 0-2.5 2.2 16 16 0 0 0-1.8 2.9 24.9 24.9 0 0 0-1.4 3.9c-.5 1.4-1.1 3.1-1.7 5l-1.2 3.4-1.2 3.1a29.2 29.2 0 0 1-1.4 3.1c-.6 1.1-1.1 2.1-1.8 3.2a41 41 0 0 1-2.6 4.1l-2.9 3.6-3.1 3.5c-1.1 1.2-2.1 2.5-3.1 3.8a11.6 11.6 0 0 0-1.4 2.7l-.9 2.5a10.2 10.2 0 0 1-1.4 2.2 4.8 4.8 0 0 1-2.4 1.6l-1.4.5-2 .7-2 .6-1.3.4a2.8 2.8 0 0 1 .1 2 1.8 1.8 0 0 1-.8.9l-1.2.6a1.8 1.8 0 0 0-.9 1l-2.2 6.7a3.3 3.3 0 0 1-1.1 1.5l-1.7.8a13.6 13.6 0 0 1-2 .2 11.5 11.5 0 0 1-1.9-.1h-1.9c-.3-.1-.4-.3-.4-.8s0-.3.1-.4.1-.2.2-.3.2-.2.2-.3a.4.4 0 0 0 .1-.3v-.2a17.4 17.4 0 0 0-3.4 1.6l-3.3 2-3.3 2.2a37.9 37.9 0 0 1-3.4 2l-.8.4-1.2.6-1 .7a2.1 2.1 0 0 0-.4 1.1v.5l1.7 1.6 2 1.8 2 1.6 2.1 1.2a7.5 7.5 0 0 0 1.8.7l1.9.5 1.9.6 1.6.9a8.3 8.3 0 0 1 1.3 1.4l1.1 1.5 1.2 1.5a8.1 8.1 0 0 0 1.4 1.2 3.8 3.8 0 0 0 1.7.6l2 .7a5.2 5.2 0 0 1 1.8 1 2.1 2.1 0 0 1 .8 1.7.3.3 0 0 1-.1.2v.3l-5.6 1.1-1.1.4-1.2.2h-.5l-1.1-.6-1.8-1-1.6-1-1.1-.8-.2-.2-.3-.5-.3-.5-.3-.5-2.2-4.4-1.1-.5-1.8-.7-2.1-.9-2.2-1-1.7-.8-1.1-.6a13.3 13.3 0 0 1-2.8-1.6 17.1 17.1 0 0 1-2.6-2.1 16.4 16.4 0 0 1-2-2.6 9.2 9.2 0 0 1-1-3.2l-.6.3-.6.3-.8.6-1.7 1.2-2.1 1.4-2.1 1.4-1.8 1-.9.5-5.9 3.6a20.2 20.2 0 0 0-4.5 3.3 16.9 16.9 0 0 0-3.6 4.4c-.9 1.7-.8 3.9-2.4 6.6v1.6a10.5 10.5 0 0 0 1.1 4.4 9 9 0 0 0 2.2 2.5 7.2 7.2 0 0 0 2.6 1.4 14.5 14.5 0 0 1 2.5 1 6.1 6.1 0 0 1 2 .9 5.2 5.2 0 0 1 .7 2h-13c-.1 0-.1-.2-.2-.4l-.4-.2h-.5l-.6-.3a2.9 2.9 0 0 1-1.2-1.5 7.9 7.9 0 0 1-.5-2.2 9 9 0 0 1 .2-2.3c0-.8.3-1.4.3-2v-1.5a6.6 6.6 0 0 1 .2-1.7 18.1 18.1 0 0 0 .6-2.7c.3-1 .5-2 .8-3.1s.5-2.2.8-3.1l.6-2.7a12 12 0 0 0 .4-1.7c.2-.8.5-1.4.7-2a11.8 11.8 0 0 1 1-1.9 14 14 0 0 0 4.5-2.6c1.1-1 2.2-2.1 3.2-3.2l2.9-3.4a12.7 12.7 0 0 1 3.4-3.1l1.4-.7 2-.8 2.3-.9 2.2-1.1a10.3 10.3 0 0 0 1.5-1.4 2 2 0 0 0 .6-1.5V141a1.7 1.7 0 0 0-.6-1.2l-.8-.3-1.1-.5-1.2-.6-.8-.3a9.4 9.4 0 0 1-2-1.2l-2.6-1.9-2.6-1.5a2.9 2.9 0 0 0-1.7-.6h-7.8c-5.9 0-11.8-.1-17.5.1s-11.6.2-17.5.2c-4.4 0-8.6-.1-12.8-.4a102.6 102.6 0 0 1-12.3-1.3 98.3 98.3 0 0 1-11.9-2.9 73.5 73.5 0 0 1-11.7-5l-1.4-.7-1.5-1a4 4 0 0 1-1.3-1.3 2.5 2.5 0 0 1-.6-1.6 9.5 9.5 0 0 1 2.1.4l2.4.9 2.2 1 1.5.6 4.6 1.7 5 1.4 5.1 1 4.8.3h26.3l2.5-.3 3.4-.5 3.6-.6 3.4-.6 2.6-.6 6.9-1.4 7.3-1.5 7.2-2.1a55.3 55.3 0 0 0 6.5-2.8l3.8-1.8 3.8-1.6 3.9-1.5a25.9 25.9 0 0 1 4.2-.9h2.7l1.8-.2h1l1.9-.4 3.3-.7 4-.9 4.1-.9c1.2-.3 2.3-.9 3.2-1.1s1.6-.7 1.9-.7h6.5c2.7 0 5.3.5 7.9.7s5.1.5 7.8.5a9.5 9.5 0 0 0 4.9-1.3 17.8 17.8 0 0 0 4.5-3.4 38.1 38.1 0 0 0 3.9-4.9 63.8 63.8 0 0 0 3.2-5.7 44.6 44.6 0 0 0 2.5-5.5c.8-1.8 1.3-3.4 1.8-4.8s.8-2.3 1.1-3.4.7-2.1 1-3.1a12.3 12.3 0 0 1 1.2-2.6 6.8 6.8 0 0 1 1.8-2 7 7 0 0 1 2.5-1.5 10.7 10.7 0 0 1 3.8-.8h3.1c.7 1.6 1.7.9 2.9 1.3a36.8 36.8 0 0 1 3.5 1.5 17 17 0 0 1 3 1.8 2.8 2.8 0 0 1 1.2 2.2 2.3 2.3 0 0 1-.4 1.4 3.6 3.6 0 0 1-1.2.5z"/></symbol><symbol id="velociraptor" viewBox="0 0 256 256"><path d="M128 1.3a126 126 0 1 0 126 126 126 126 0 0 0-126-126zm109 115a28 28 0 0 1-4.1 0h-3.2a90.8 90.8 0 0 1-9.1-.5l-9-.9-9-1c-3-.3-6.1-.4-9.1-.4a148 148 0 0 0-16.2.9 73.9 73.9 0 0 0-15.6 3.7L131.4 129a2.4 2.4 0 0 0-1.2 1.6 17.3 17.3 0 0 0-.8 2.7l-.6 2.8a9.8 9.8 0 0 1-.6 2 3.2 3.2 0 0 0 1.3 1.3l2.4 1.1 2.9 1.2a17.1 17.1 0 0 1 2.7 1.4 7.8 7.8 0 0 1 2.1 1.9 3.5 3.5 0 0 1 .8 2.4 1.3 1.3 0 0 1-.5 1.2l-1.2.9-1.6.7-1.5.8-1.3 1a2.4 2.4 0 0 0-.4 1.5 3.7 3.7 0 0 0 .7 2.5 7.8 7.8 0 0 0 2 1.6 17.1 17.1 0 0 0 2.3 1.3 8.7 8.7 0 0 1 2.1 1.7 15.1 15.1 0 0 1 2 3.4 18.2 18.2 0 0 1 1.3 3.7c.3 1.2.6 2.5.8 3.8s.1 2.6.2 3.9l1.3 1.3v7.1h.9l1 .2 1 .2.5.2a4.4 4.4 0 0 1 .1.9 3.4 3.4 0 0 1-.1.9 9.3 9.3 0 0 1-.4 1.3 1.8 1.8 0 0 1-.6.9c-.2.3-.5.3-.9.3H143c-.2 0-.5-.5-1-.8l-1.5-.9-1.5-.7c-.5-.4-.9-.9-1.2-.9h-6.1a4.7 4.7 0 0 1 .7-2.9 4.1 4.1 0 0 1 1.6-1.6 8.3 8.3 0 0 1 2.1-.6l2.1-.3 1.6-.6a1.5 1.5 0 0 0 .7-1.4.4.4 0 0 0-.1-.3v-.3l-.8-1.8c-.4-.7-.8-1.6-1.3-2.4l-1.5-2.4a10.1 10.1 0 0 0-1.5-1.8l-1.3-.8-1.9-1a9.5 9.5 0 0 1-1.7-1 3.3 3.3 0 0 1-1-1.1c-.3-.8-.6-1.8-.9-2.9a17.3 17.3 0 0 0-1.1-3.2 9 9 0 0 0-1.7-2.6 4.1 4.1 0 0 0-2.8-1 24.7 24.7 0 0 0-6 .8 28 28 0 0 0-5.7 2.2 24.3 24.3 0 0 0-4.9 3.5 21.1 21.1 0 0 0-3.9 4.5l-.4.2h-.2c-.1 0-.2-.2-.2-.3a6.4 6.4 0 0 1-.2-.7 1.4 1.4 0 0 0-.2-.6.4.4 0 0 0-.1-.3h-.3a1.4 1.4 0 0 0-1 .5 3.8 3.8 0 0 0-.9 1.2 5.7 5.7 0 0 0-.8 1.3l-.9 1a3.5 3.5 0 0 1-.6-1.7 7.6 7.6 0 0 1-.1-1.6 9.2 9.2 0 0 1 .4-2.9l.9-2.7c.3-1 .6-1.6.9-2.6a14.1 14.1 0 0 0 .4-2.7h-4.8c0-1.7.2-1.8.6-2.4a5.7 5.7 0 0 1 1.6-1.5 5 5 0 0 1 2.1-.9l2.1-.3a15.1 15.1 0 0 1 3 .2l2.9.4 2.9.5 2.9.2h2.2a2.1 2.1 0 0 0-1.6-1.7l-2.5-.5-2.7-.2c-.9 0-1.6.2-2.2-.2l-3.8-2.1h-.3a17.1 17.1 0 0 0-3.2-.1 10.6 10.6 0 0 1-3.1.2 7.3 7.3 0 0 1-3-.7l-2.6-1.4-2.6-1.3a4.8 4.8 0 0 0-2.8-.6v6l1.6-.2.9-.3.9-.5a3.5 3.5 0 0 1 .9-.6l.6-.2v2.7l2-.6c0 .1.2.2.2.5s.1.3.1.5a5.5 5.5 0 0 1-1.3 3.8 18.2 18.2 0 0 1-3.2 2.9 29.2 29.2 0 0 0-4.6-1.3l-4.7-.6v-7.7l-1.7.5-2.1 1a5.7 5.7 0 0 0-1.8 1.2c-.5.4-1 .8-1 1.1v6.9a9.6 9.6 0 0 0 3-.3l1.8-.6 1.2-.6 1.2-.3h.4l.2.7.5 1.2a9.3 9.3 0 0 1 .4 1.3 5.8 5.8 0 0 1 .2 1 7.2 7.2 0 0 1-.4 1.9 8.7 8.7 0 0 1-1.1 1.8 6.4 6.4 0 0 1-1.5 1.3 4.1 4.1 0 0 1-1.8.5H74l-2.9-.5a19.1 19.1 0 0 1-3.6-.7 14.2 14.2 0 0 1-3.3-1.2 2.6 2.6 0 0 1-1.4-2.1V149l.9-.8a20.2 20.2 0 0 0 1.9-1.6l2.3-2.1a27.7 27.7 0 0 0 2.4-2.5 21.1 21.1 0 0 0 1.8-2.7 6.3 6.3 0 0 0 .7-2.5 3.8 3.8 0 0 0-1.2-2.8 13.5 13.5 0 0 0-2.7-2 23.3 23.3 0 0 0-3.3-1.4l-2.5-.9-1.3-9a16.8 16.8 0 0 0-.6-2.7 8.1 8.1 0 0 0-1.1-2.7 5.1 5.1 0 0 0-1.7-2.1 4.2 4.2 0 0 0-2.7-.9 12.5 12.5 0 0 0-3.6.5 20.8 20.8 0 0 0-3.2 1.4l-1.6 1.1-2.5 1.4-2.9 1.8-3 1.7-2.5 1.7c-.8.4-1.3 1.1-1.6 1.1h-1l-1.7-.3-2.1-.3a4.7 4.7 0 0 1-1.4-.8c-.4-.3-.3-.8-.3-1.4v-1.8c0-.6-.2-.9 0-.9h1.6s-.1-.1 0-.4a1.9 1.9 0 0 0 .1-.8 3.1 3.1 0 0 0 .2-.8c.1-.3.1-.5 0-.5a3.5 3.5 0 0 0-.7-.9l-.9-.4a2.3 2.3 0 0 1-.7-.7 2.1 2.1 0 0 1-.3-1.2 2.7 2.7 0 0 1 .3-1.2 3.4 3.4 0 0 1 .6-1.2c.3-.3.3-.6.6-.8l.8-.4v.8c0 .5.5 1 .6 1.5s.7.7 1.2.7a1.4 1.4 0 0 0 1.1-.5 4.8 4.8 0 0 0 .9-1.1 11.1 11.1 0 0 0 .7-1.6c.1-.5.2.3.2-1.4H22.5a2.1 2.1 0 0 1-.9-.5 5.3 5.3 0 0 1-1-.6l-.9-.8a1.3 1.3 0 0 1-.4-1 4.6 4.6 0 0 1 1.1-3.2 8.6 8.6 0 0 1 2.6-1.9l3.1-1a13.6 13.6 0 0 0 2.8-.8l2.2-.9 3.4-1.5 3.3-1.6c1-.5 1.7-1.1 2.1-1.1h13.5a7.6 7.6 0 0 1 3.9 1 14.2 14.2 0 0 1 3 2.5 29.1 29.1 0 0 1 2.6 3.3c.7 1.2 1.5 2.3 2.2 3.3a18.9 18.9 0 0 0 2.3 2.5 3.7 3.7 0 0 0 2.4 1c.4 0 .7-.1.8-.4s.4-.4.9-.4l1.5.3 1.5.7 1.5.7a4 4 0 0 0 1.5.3 27.5 27.5 0 0 0 4.1-.2l4.1-.4 4-.5 4.1-.2a55.8 55.8 0 0 1 7.2.4 38.5 38.5 0 0 1 7.2 1.5c1.6.6 3.3 1.2 5 2l5.1 2.2 5.1 1.7a20 20 0 0 0 5.4.7h2.6l12.7-2.7c4.3-.9 8.5-1.6 12.8-2.3s8.5-1.1 12.8-1.5 8.6-.6 13-.6h8.7a31.5 31.5 0 0 1 5 1l36.1 7.1h11.6c-.8 0-1.8 1-3.1 1.4a26.1 26.1 0 0 1-4 .2z"/></symbol></svg>